{
    "asset" : {
        "generator" : "Khronos glTF Blender I/O v1.3.48",
        "version" : "2.0"
    },
    "extensionsUsed" : [
        "KHR_lights_punctual"
    ],
    "extensionsRequired" : [
        "KHR_lights_punctual"
    ],
    "extensions" : {
        "KHR_lights_punctual" : {
            "lights" : [
                {
                    "color" : [
                        1,
                        1,
                        1
                    ],
                    "intensity" : 10,
                    "type" : "point",
                    "name" : "Point"
                }
            ]
        }
    },
    "scene" : 0,
    "scenes" : [
        {
            "name" : "Scene",
            "nodes" : [
                0,
                2
            ]
        }
    ],
    "nodes" : [
        {
            "mesh" : 0,
            "name" : "Circle"
        },
        {
            "extensions" : {
                "KHR_lights_punctual" : {
                    "light" : 0
                }
            },
            "name" : "Point_Orientation",
            "rotation" : [
                -0.7071067690849304,
                0,
                0,
                0.7071067690849304
            ]
        },
        {
            "children" : [
                1
            ],
            "name" : "Point",
            "translation" : [
                0.04174649715423584,
                1.7848641872406006,
                0.7601796388626099
            ]
        }
    ],
    "materials" : [
        {
            "doubleSided" : true,
            "emissiveFactor" : [
                1,
                1,
                1
            ],
            "emissiveTexture" : {
                "index" : 0,
                "texCoord" : 0
            },
            "name" : "1_Lamp_Mat",
            "pbrMetallicRoughness" : {
                "baseColorTexture" : {
                    "index" : 1,
                    "texCoord" : 0
                },
                "metallicRoughnessTexture" : {
                    "index" : 2,
                    "texCoord" : 0
                }
            }
        }
    ],
    "meshes" : [
        {
            "name" : "Circle",
            "primitives" : [
                {
                    "attributes" : {
                        "POSITION" : 0,
                        "NORMAL" : 1,
                        "TEXCOORD_0" : 2
                    },
                    "indices" : 3,
                    "material" : 0
                }
            ]
        }
    ],
    "textures" : [
        {
            "source" : 0
        },
        {
            "source" : 1
        },
        {
            "source" : 2
        }
    ],
    "images" : [
        {
            "bufferView" : 4,
            "mimeType" : "image/jpeg",
            "name" : "CircleMaterial_emission"
        },
        {
            "bufferView" : 5,
            "mimeType" : "image/jpeg",
            "name" : "CircleMaterial_color"
        },
        {
            "bufferView" : 6,
            "mimeType" : "image/jpeg",
            "name" : "CircleMaterial_combined_AO_R_M"
        }
    ],
    "accessors" : [
        {
            "bufferView" : 0,
            "componentType" : 5126,
            "count" : 6506,
            "max" : [
                0.668073296546936,
                2.1293699741363525,
                1.0227844715118408
            ],
            "min" : [
                -0.24234074354171753,
                0,
                -0.40981000661849976
            ],
            "type" : "VEC3"
        },
        {
            "bufferView" : 1,
            "componentType" : 5126,
            "count" : 6506,
            "type" : "VEC3"
        },
        {
            "bufferView" : 2,
            "componentType" : 5126,
            "count" : 6506,
            "type" : "VEC2"
        },
        {
            "bufferView" : 3,
            "componentType" : 5123,
            "count" : 31161,
            "type" : "SCALAR"
        }
    ],
    "bufferViews" : [
        {
            "buffer" : 0,
            "byteLength" : 78072,
            "byteOffset" : 0
        },
        {
            "buffer" : 0,
            "byteLength" : 78072,
            "byteOffset" : 78072
        },
        {
            "buffer" : 0,
            "byteLength" : 52048,
            "byteOffset" : 156144
        },
        {
            "buffer" : 0,
            "byteLength" : 62322,
            "byteOffset" : 208192
        },
        {
            "buffer" : 0,
            "byteLength" : 69339,
            "byteOffset" : 270516
        },
        {
            "buffer" : 0,
            "byteLength" : 393492,
            "byteOffset" : 339856
        },
        {
            "buffer" : 0,
            "byteLength" : 312307,
            "byteOffset" : 733348
        }
    ],
    "buffers" : [
        {
            "byteLength" : 1045656,
            "uri" : "data:application/octet-stream;base64,"
        }
    ]
}
